<svg xmlns="http://www.w3.org/2000/svg" xmlns:xlink="http://www.w3.org/1999/xlink" width="35" height="35" viewBox="0 0 35 35">
    <defs>
        <filter id="a" width="159.1%" height="163.1%" x="-29.5%" y="-23.2%" filterUnits="objectBoundingBox">
            <feMorphology in="SourceAlpha" operator="dilate" radius=".5" result="shadowSpreadOuter1"/>
            <feOffset dy="2" in="shadowSpreadOuter1" result="shadowOffsetOuter1"/>
            <feGaussianBlur in="shadowOffsetOuter1" result="shadowBlurOuter1" stdDeviation="2"/>
            <feComposite in="shadowBlurOuter1" in2="SourceAlpha" operator="out" result="shadowBlurOuter1"/>
            <feColorMatrix in="shadowBlurOuter1" values="0 0 0 0 0 0 0 0 0 0 0 0 0 0 0 0 0 0 0.4 0"/>
        </filter>
    </defs>
    <g fill="none" fill-rule="evenodd" transform="translate(2.5 1.5)">
        <circle cx="13.498" cy="17.548" r="13.498" fill="#18B300"/>
        <g fill-rule="nonzero">
            <path fill="#000" filter="url(#a)" id="b" d="M25.786 1.502a2.025 2.025 0 0 1 3.264 2.396L14.59 23.604a2.025 2.025 0 0 1-3.065.233l-6.883-6.882a2.025 2.025 0 1 1 2.864-2.864l5.214 5.215L25.786 1.502z"/>
            <path fill="#FFF" fill-rule="evenodd" stroke="#009100" stroke-width=".5" d="M12.691 18.923l12.893-17.57a2.275 2.275 0 0 1 3.668 2.692L14.791 23.751a2.275 2.275 0 0 1-3.443.263l-6.882-6.883a2.275 2.275 0 1 1 3.217-3.217l5.008 5.009z"/>
        </g>
    </g>
</svg>
