<svg xmlns="http://www.w3.org/2000/svg" width="281" height="149" viewBox="0 0 281 149">
    <g fill="none" fill-rule="nonzero">
        <path fill="#006498" d="M28.362 67.562v17.231H8.47V67.562H.387v38.678h8.082V88.264h19.893v13.885c0 .868.125 1.611.498 2.107.373.496.746.992 1.243 1.24.497.248.995.496 1.616.62.622.124 1.12.124 1.492.124h3.233V67.562h-8.082zM185.772 106.24V67.562h-7.833l-15.79 28.636-16.04-28.636h-7.958v38.678h4.103v-30l16.91 30h2.114l16.537-29.752v25.66c0 .869.124 1.612.497 2.108s.746.992 1.243 1.24c.498.248.995.496 1.617.62a7.156 7.156 0 0 0 1.492.124h3.108zM236.253 106.24L216.11 66.694h-2.362l-20.64 39.546h4.725l6.465-12.273h14.672L216.98 90h-10.568l6.838-13.017 13.304 26.157c.498 1.116 1.12 1.86 1.99 2.356.746.496 1.74.744 2.984.744h4.725zM278.154 67.562c-.249 0-.497 0-.746.124-.249 0-.622.124-.87.248a1.496 1.496 0 0 0-.622.62 2.47 2.47 0 0 0-.249 1.115v24.918l-26.856-27.025h-5.223v38.678h4.725V77.107l27.23 28.265c1.119.992 2.611.992 4.103.992h.622V67.562h-2.114z"/>
        <path fill="#00A6E3" d="M193.108 24.05c-18.029-1.488-38.544.62-52.221 3.47-16.786 3.472-32.328 8.182-47.124 14.629-3.357 1.487-6.59 3.099-9.822 4.834 10.195-7.685 21.634-15.123 33.944-21.322C152.2 8.058 188.383 1.364 205.293 14.132c4.725 3.471 7.336 8.058 8.33 13.513-8.081-2.356-15.666-3.224-20.515-3.595zM77.6 52.066s9.325-5.33 16.412-8.306c17.283-7.438 32.576-11.777 46.626-14.38 11.315-2.107 45.88-7.562 73.358 1.116.498 6.446-1.243 13.76-4.849 21.694h11.19c2.736-5.826 4.601-11.405 5.471-16.735 4.228 2.355 8.207 5.082 11.564 8.553 3.108 3.1 6.216 8.182 6.216 8.182h4.974s-2.114-4.835-6.839-9.67c-4.351-4.462-9.822-7.81-15.417-10.413.87-10.165-2.487-18.843-10.942-24.793-20.391-14.38-60.8-6.198-97.977 13.884-16.66 8.926-31.83 19.835-44.388 30.868h4.6z"/>
        <path fill="#006498" d="M66.907 66.694h-2.363l-20.64 39.546h4.725l15.294-29.257L70.513 90h-10.57l-1.989 3.967h14.548l4.6 9.297c.498 1.116 1.12 1.86 1.99 2.356.746.496 1.74.744 2.984.744h4.973l-20.142-39.67z"/>
        <path fill="#00A6E3" d="M186.394 126.942h-3.109c-20.266 8.554-43.766 14.132-67.39 15 10.196-3.595 20.889-8.678 31.706-15h-10.196c-10.693 6.198-21.261 10.91-31.208 14.132-1.12.372-2.114.744-3.233.992-17.158-.62-30.835-4.587-40.285-10.537-2.238-1.364-4.227-2.975-5.968-4.587h-2.114c2.114 2.232 4.6 4.215 7.46 6.075 8.331 5.454 20.019 9.297 34.442 10.66-13.304 3.1-24.122 2.852-32.08.125-7.957-2.728-13.925-7.81-16.038-14.504-.25-.744-.498-1.612-.622-2.48h-1.244c.25.992.498 2.108.746 3.1 2.363 7.561 8.953 13.264 17.408 16.363 10.07 3.719 24.742 3.595 43.144-1.736.249 0 .373-.124.622-.124 24.867.248 52.719-5.578 77.959-17.479"/>
        <path fill="#006498" d="M102.715 70.91v14.627h3.73s3.73 0 6.093-1.363c2.362-1.364 4.103-3.348 4.103-6.199s-1.865-5.454-4.476-6.446c0 0-1.492-.744-4.103-.744h-5.347v.124zm16.04 32.23l-11.936-14.628h-4.104v17.728h-8.081V67.562h14.796s6.092-.124 10.07 1.86c3.98 1.983 5.72 4.834 5.72 8.43 0 3.594-2.113 7.81-9.822 9.917l15.417 18.47H124.6s-1.244 0-2.86-.495c-1.368-.496-2.984-2.604-2.984-2.604z"/>
    </g>
</svg>
